<svg width="80" height="17" viewBox="0 0 80 17" fill="none" xmlns="http://www.w3.org/2000/svg">
<path d="M77.7158 4.62155L75.8568 9.18993C75.8035 9.24305 75.8035 9.34929 75.8035 9.40242L75.7505 9.50865L75.6972 9.40242C75.6972 9.34929 75.6441 9.24305 75.6441 9.18993L73.7849 4.62155H71.3946L74.5285 12.4303L73.2006 15.4051H75.5911L80 4.62155H77.7158Z" fill="white"/>
<path d="M60.0796 5.04654C59.6546 4.72781 59.1234 4.51535 58.486 4.46222C57.4234 4.35599 56.4141 4.72781 55.7235 5.41839V4.56845H53.5455V12.3772H55.7235V8.28691C55.7235 7.38387 55.8831 7.11825 56.0424 6.90578C56.3081 6.4808 56.7861 6.26833 57.3704 6.26833C57.9547 6.26833 58.486 6.53393 58.7514 6.95888C58.911 7.27761 58.964 7.70259 58.964 7.91506C58.964 8.60563 58.964 12.3772 58.964 12.3772H61.142V7.64946C61.142 6.42769 60.8233 5.57775 60.0796 5.04654Z" fill="white"/>
<path d="M49.4556 4.67472C48.393 4.30287 47.2243 4.356 46.162 4.83408C45.4714 5.15281 44.834 5.68402 44.4621 6.37458C44.0904 6.95892 43.9308 7.7026 43.9308 8.49941C43.9308 9.29622 44.0904 10.0399 44.4621 10.6242C44.834 11.2086 45.3121 11.7398 45.9494 12.0585C46.587 12.3772 47.3307 12.5897 48.0213 12.5897C48.393 12.5897 48.7649 12.5366 49.1366 12.4304C49.4556 12.3241 49.7742 12.2179 50.0929 12.0585C50.7303 11.6867 51.2616 11.2086 51.5802 10.6242C51.9522 10.0399 52.1115 9.29622 52.1115 8.49941C52.1115 6.74643 51.1022 5.25904 49.4556 4.67472ZM50.0399 8.60565C49.9866 9.29622 49.7742 9.88057 49.3493 10.2524C49.0306 10.518 48.5523 10.6774 47.968 10.7305C47.3837 10.7305 46.9587 10.5711 46.587 10.2524C46.162 9.88057 45.9494 9.29622 45.8964 8.60565C45.8434 7.80883 46.162 7.17139 46.7463 6.74643C47.065 6.53394 47.49 6.37458 47.915 6.37458C48.393 6.37458 48.7649 6.53394 49.1366 6.74643C49.7742 7.11828 50.0929 7.80883 50.0399 8.60565Z" fill="white"/>
<path d="M41.3812 5.04652C40.9562 4.7278 40.4249 4.51531 39.7875 4.46218C39.6812 4.46218 39.5219 4.46218 39.4156 4.46218C38.5656 4.46218 37.822 4.83403 37.1846 5.57771L37.0783 5.73708H36.8657C36.7063 5.47148 36.494 5.25899 36.2814 5.09963C35.8564 4.7809 35.3253 4.56844 34.6877 4.51531C33.6784 4.40908 32.8818 4.7278 32.1911 5.47148V4.67467H30.0132V12.4834H32.1911V8.28687C32.1911 7.43696 32.2974 7.22446 32.4568 6.95887C32.7224 6.53389 33.2004 6.26829 33.7317 6.32142C34.2628 6.32142 34.741 6.58702 35.0067 7.01197C35.219 7.3307 35.219 7.70255 35.219 8.07441V12.4303H37.397V8.23377C37.397 7.43696 37.5033 7.17134 37.6626 6.90574C37.9283 6.48078 38.4063 6.26829 38.9376 6.26829C39.4686 6.26829 39.8936 6.53389 40.1592 6.95887C40.3186 7.22446 40.3719 7.54319 40.3719 7.75568C40.3719 7.86191 40.3719 7.96815 40.3719 8.02128V12.3772H42.5498V7.59632C42.5498 7.17134 42.4965 6.74638 42.3905 6.37452C42.1778 5.84334 41.8592 5.36525 41.3812 5.04652Z" fill="white"/>
<path d="M69.3224 10.0399C69.0037 10.3586 68.2601 10.9429 67.2508 10.996C66.4008 11.0491 65.7635 10.7835 65.2852 10.3055C65.0728 10.093 64.9135 9.77425 64.8072 9.45552H70.81V9.40242C70.863 9.08369 70.916 8.81807 70.916 8.49935C70.916 8.23376 70.863 7.8619 70.7567 7.38381C70.4911 6.48077 69.96 5.79019 69.2694 5.25898C68.4725 4.67466 67.7288 4.5153 67.5164 4.5153C65.9758 4.2497 64.2229 4.94025 63.3199 6.37451C62.6823 7.38381 62.7356 8.39312 62.7356 8.71184C62.7356 9.0837 62.7886 10.2523 63.7449 11.3148C64.8605 12.5365 66.4008 12.5897 66.8788 12.6428C69.0037 12.6959 70.438 11.3679 70.7567 11.1023L69.3224 10.0399ZM65.6041 6.74637C65.9228 6.53387 66.2945 6.37451 66.7728 6.37451C67.2508 6.37451 67.6227 6.53387 67.9944 6.74637C68.3131 7.01196 68.5788 7.33068 68.7381 7.70254H64.9135C65.0198 7.33068 65.2322 6.95886 65.6041 6.74637Z" fill="white"/>
<path d="M15.2459 0C10.5713 0 6.85281 3.77159 6.85281 8.39309C6.85281 13.0677 10.6244 16.7862 15.2459 16.7862C19.8674 16.7862 23.639 13.0146 23.639 8.39309C23.639 3.77159 19.8674 0 15.2459 0ZM15.2459 11.4741C13.546 11.4741 12.1118 10.0398 12.1118 8.33996C12.1118 6.64011 13.546 5.20585 15.2459 5.20585C16.9458 5.20585 18.38 6.64011 18.38 8.33996C18.3269 10.0929 16.9458 11.4741 15.2459 11.4741Z" fill="white"/>
<path d="M6.79947 2.39048V14.6083H3.82469L0 2.39048H6.79947Z" fill="white"/>
</svg>
