<svg width="80" height="41" viewBox="0 0 80 41" fill="none" xmlns="http://www.w3.org/2000/svg">
<path fill-rule="evenodd" clip-rule="evenodd" d="M17.0302 25.4572C17.5338 25.4541 19.0303 25.3194 19.6642 27.4587C20.0912 28.8999 20.7714 31.2605 21.7047 34.5406H22.0849C23.0858 31.0825 23.7734 28.7218 24.1477 27.4587C24.7882 25.2971 26.3894 25.4572 27.0299 25.4572L31.9715 25.4572V40.8291H26.9349V31.7702H26.5971L23.7895 40.8291H20.0001L17.1924 31.7635H16.8547V40.8291H11.8181V25.4572L17.0302 25.4572ZM39.2039 25.4572V34.5228H39.6057L43.0209 27.0682C43.6839 25.5847 45.0969 25.4572 45.0969 25.4572H49.9708V40.8291H44.829V31.7635H44.4272L41.0789 39.2181C40.416 40.6948 38.936 40.8291 38.936 40.8291H34.0621V25.4572H39.2039ZM67.7431 32.762C67.0259 34.7945 64.7735 36.25 62.2798 36.25H56.8876V40.8291H51.9981V32.762H67.7431Z" fill="#0F754E"/>
<path fill-rule="evenodd" clip-rule="evenodd" d="M62.5155 25.4571H51.7416C51.998 28.8794 54.9452 31.8091 57.9962 31.8091H68.0827C68.6648 28.9648 66.661 25.4571 62.5155 25.4571Z" fill="url(#paint0_linear)"/>
<path d="M16.1684 1.68231H9.28589V14.0491H16.1684V1.68231Z" fill="#FF5F00"/>
<path d="M9.72285 7.86587C9.72285 5.35319 10.9027 3.12456 12.7162 1.6825C11.3834 0.633726 9.701 9.15527e-05 7.86566 9.15527e-05C3.51763 9.15527e-05 -0.00012207 3.51784 -0.00012207 7.86587C-0.00012207 12.2139 3.51763 15.7316 7.86566 15.7316C9.701 15.7316 11.3834 15.098 12.7162 14.0493C10.9027 12.629 9.72285 10.3786 9.72285 7.86587Z" fill="#EB001B"/>
<path d="M25.4545 7.86575C25.4545 12.2138 21.9368 15.7315 17.5887 15.7315C15.7534 15.7315 14.071 15.0979 12.7382 14.0491C14.5735 12.6071 15.7315 10.3784 15.7315 7.86575C15.7315 5.35307 14.5517 3.12443 12.7382 1.68237C14.071 0.633604 15.7534 -3.05176e-05 17.5887 -3.05176e-05C21.9368 -3.05176e-05 25.4545 3.53957 25.4545 7.86575Z" fill="#F79E1B"/>
<path d="M55.2726 14.1301H51.7377L53.9487 0.459276H57.4833L55.2726 14.1301Z" fill="white"/>
<path d="M68.0867 0.793539C67.3895 0.516929 66.2836 0.211517 64.9162 0.211517C61.4255 0.211517 58.9673 2.07298 58.9522 4.73432C58.9232 6.69784 60.7122 7.78843 62.0502 8.44313C63.4178 9.11214 63.8827 9.5488 63.8827 10.1451C63.8688 11.061 62.7776 11.4831 61.7599 11.4831C60.3486 11.4831 59.5924 11.2655 58.4433 10.756L57.9778 10.5375L57.4831 13.6063C58.3122 13.984 59.8396 14.3192 61.4255 14.3339C65.1345 14.3339 67.5492 12.5012 67.5778 9.66517C67.5919 8.10892 66.6472 6.91646 64.6106 5.94204C63.3743 5.31653 62.6171 4.89475 62.6171 4.25474C62.6316 3.67291 63.2575 3.07697 64.6532 3.07697C65.8023 3.04779 66.6466 3.32401 67.2863 3.60043L67.606 3.74559L68.0867 0.793539Z" fill="white"/>
<path d="M72.7848 9.28702C73.0759 8.50165 74.1961 5.46203 74.1961 5.46203C74.1814 5.49122 74.4866 4.66217 74.6612 4.15321L74.9082 5.33117C74.9082 5.33117 75.5776 8.60352 75.723 9.28702C75.1705 9.28702 73.483 9.28702 72.7848 9.28702ZM77.1482 0.459276H74.4139C73.5708 0.459276 72.9302 0.706311 72.5664 1.59355L67.3158 14.1299H71.0248C71.0248 14.1299 71.6355 12.4426 71.7667 12.0792C72.1736 12.0792 75.7817 12.0792 76.3052 12.0792C76.4067 12.5592 76.727 14.1299 76.727 14.1299H79.9999L77.1482 0.459276Z" fill="white"/>
<path d="M48.7853 0.459276L45.3235 9.78148L44.9452 7.89083C44.3052 5.70926 42.298 3.33904 40.058 2.1605L43.2289 14.1156H46.9669L52.5231 0.459276H48.7853Z" fill="white"/>
<path d="M42.1089 0.459276H36.4217L36.3635 0.735499C40.7999 1.86997 43.738 4.60398 44.9452 7.89083L43.7089 1.60844C43.5053 0.735306 42.8798 0.488077 42.1089 0.459276Z" fill="white"/>
<defs>
<linearGradient id="paint0_linear" x1="68.1816" y1="29.4528" x2="51.7416" y2="29.4528" gradientUnits="userSpaceOnUse">
<stop stop-color="#1F5CD7"/>
<stop offset="1" stop-color="#02AEFF"/>
</linearGradient>
</defs>
</svg>
